<?xml version="1.0" standalone="no"?>
<!DOCTYPE svg PUBLIC "-//W3C//DTD SVG 20010904//EN"
 "http://www.w3.org/TR/2001/REC-SVG-20010904/DTD/svg10.dtd">
<svg version="1.0" xmlns="http://www.w3.org/2000/svg"
 width="1600.000000pt" height="1600.000000pt" viewBox="0 0 1600.000000 1600.000000"
 preserveAspectRatio="xMidYMid meet">
<metadata>
Created by potrace 1.11, written by Peter Selinger 2001-2013
</metadata>
<g transform="translate(0.000000,1600.000000) scale(0.100000,-0.100000)"
fill="#000000" stroke="none">
<path d="M7872 11669 c-94 -236 -180 -542 -223 -786 -57 -329 -60 -385 -66
-1096 l-5 -658 -32 3 -31 3 -3 88 -3 87 -124 0 -125 0 0 -105 0 -105 -93 -123
c-51 -67 -187 -245 -301 -396 -115 -150 -204 -276 -199 -280 5 -3 48 -31 96
-61 48 -30 87 -60 87 -67 0 -6 -9 -32 -20 -58 -11 -26 -20 -49 -20 -51 0 -2
180 -4 401 -4 l401 0 138 -120 c77 -66 142 -120 146 -120 3 0 69 54 146 120
l139 120 400 0 c272 0 399 3 399 10 0 6 -6 23 -14 38 -34 68 -34 67 61 128 48
32 92 60 97 65 4 4 -127 186 -293 405 l-301 397 0 103 0 104 -125 0 -124 0 -3
-87 -3 -88 -31 -3 -32 -3 -5 658 c-5 672 -8 728 -52 1028 -33 229 -177 741
-244 874 l-18 33 -21 -53z m114 -1154 c65 -38 84 -87 84 -219 l0 -107 -22 13
c-35 20 -243 17 -290 -4 l-38 -17 0 109 c0 115 8 150 43 189 61 67 147 81 223
36z m44 -389 l35 -11 3 -273 2 -272 -175 0 -175 0 0 266 0 265 36 15 c75 32
193 36 274 10z m40 -921 c0 -328 -2 -338 -63 -392 -40 -35 -89 -49 -144 -40
-45 8 -75 27 -110 73 l-28 37 -3 309 -3 308 176 0 175 0 0 -295z"/>
<path d="M3246 7968 c4 -7 48 -66 98 -130 l91 -118 1090 0 1090 0 0 -472 0
-473 145 0 145 0 3 478 2 477 90 0 90 0 0 125 0 125 -1426 0 c-1137 0 -1424
-3 -1418 -12z"/>
<path d="M6263 7882 l-112 -97 2 -419 2 -420 113 -98 112 -98 128 0 127 0 113
101 112 100 0 414 0 414 -112 100 -113 101 -130 -1 -130 -1 -112 -96z m367
-517 l0 -386 -122 3 -123 3 -3 383 -2 382 125 0 125 0 0 -385z"/>
<path d="M6980 7365 l0 -615 115 0 115 0 0 205 0 205 128 0 127 0 113 101 112
101 -1 212 0 211 -112 97 -112 97 -242 1 -243 0 0 -615z m480 205 l0 -180
-125 0 -125 0 0 180 0 180 125 0 125 0 0 -180z"/>
<path d="M8093 7882 l-113 -96 0 -420 0 -421 116 -97 115 -98 124 0 124 0 115
101 116 101 0 214 0 214 -175 0 -175 0 0 -110 0 -110 60 0 60 0 0 -90 0 -90
-125 0 -125 0 0 385 0 385 125 0 125 0 0 -105 0 -105 115 0 115 0 0 119 0 120
-114 100 -114 101 -128 -1 -129 0 -112 -97z"/>
<path d="M8817 7973 c-4 -3 -7 -234 -7 -513 l0 -506 118 -102 117 -101 126 -1
125 0 117 102 117 103 0 512 0 513 -115 0 -115 0 0 -500 0 -500 -125 0 -125 0
0 500 0 500 -113 0 c-63 0 -117 -3 -120 -7z"/>
<path d="M9660 7365 l0 -615 115 0 115 0 0 338 1 337 35 -85 c20 -47 60 -146
91 -220 30 -74 77 -187 104 -250 l48 -115 115 -3 116 -3 0 486 0 485 1083 0
1082 0 91 118 c50 64 94 123 98 130 6 9 -255 12 -1288 12 l-1296 0 0 -327 c0
-179 -2 -324 -5 -321 -5 5 -68 154 -193 461 l-76 187 -118 0 -118 0 0 -615z"/>
<path d="M3513 7626 c3 -8 45 -64 92 -125 l87 -111 904 0 904 0 0 125 0 125
-996 0 c-855 0 -995 -2 -991 -14z"/>
<path d="M10500 7515 l0 -125 904 0 904 0 87 111 c47 61 89 117 92 125 4 12
-136 14 -991 14 l-996 0 0 -125z"/>
<path d="M3756 7308 c5 -7 48 -64 97 -125 l89 -113 779 0 779 0 0 125 0 125
-876 0 c-697 0 -874 -3 -868 -12z"/>
<path d="M10500 7195 l0 -125 779 0 779 0 89 113 c49 61 92 118 97 125 6 9
-171 12 -868 12 l-876 0 0 -125z"/>
<path d="M4000 6995 c0 -7 135 -180 169 -217 l25 -28 653 0 653 0 0 125 0 125
-750 0 c-412 0 -750 -2 -750 -5z"/>
<path d="M10500 6875 l0 -125 653 0 653 0 25 28 c34 37 169 210 169 217 0 3
-337 5 -750 5 l-750 0 0 -125z"/>
<path d="M7819 6538 l-65 -193 -204 -5 -205 -5 145 -108 c80 -59 153 -113 163
-120 16 -11 13 -25 -43 -206 -33 -107 -59 -196 -57 -197 1 -1 74 49 161 112
87 63 163 114 168 114 5 0 82 -51 171 -114 89 -63 163 -113 164 -112 1 1 -86
287 -111 363 -6 19 13 36 156 145 l163 123 -202 3 c-180 2 -202 4 -208 20 -4
9 -34 96 -67 192 -33 96 -61 176 -63 178 -1 1 -31 -84 -66 -190z"/>
<path d="M4250 6675 c0 -3 42 -60 93 -125 l92 -120 1440 0 c792 0 1524 3 1626
7 l186 6 36 111 c20 62 37 115 37 119 0 4 -790 7 -1755 7 -965 0 -1755 -2
-1755 -5z"/>
<path d="M8011 6668 c0 -7 17 -60 37 -118 l37 -105 95 -6 c52 -4 835 -7 1740
-8 l1645 -1 93 120 c50 65 92 122 92 125 0 3 -841 5 -1870 5 -1490 0 -1870 -3
-1869 -12z"/>
<path d="M5990 6248 c-26 -57 -122 -255 -214 -441 -107 -221 -169 -357 -175
-392 -11 -58 -3 -132 22 -200 19 -50 135 -292 175 -364 l30 -53 17 53 c15 45
50 90 219 279 111 124 368 413 571 643 l370 417 3 -122 c3 -120 2 -123 -25
-159 -30 -41 -607 -771 -842 -1067 -178 -222 -198 -266 -171 -364 12 -42 92
-156 117 -165 9 -4 25 -15 35 -25 28 -28 90 -23 286 26 97 25 245 60 329 80
216 50 232 63 288 234 16 49 19 52 50 52 29 0 34 -4 37 -27 3 -27 5 -28 76
-31 39 -2 72 -6 72 -10 0 -4 9 -81 20 -171 18 -153 32 -206 44 -170 5 13 36
308 36 336 0 8 23 13 68 15 65 3 67 4 70 31 3 24 7 27 40 27 37 0 38 0 34 -38
-3 -27 2 -45 16 -62 18 -23 29 -25 111 -28 l91 -4 0 -129 0 -129 105 0 105 0
0 130 0 130 75 0 c41 0 85 5 99 11 29 13 49 60 40 95 -6 22 -3 24 35 24 39 0
41 -2 41 -30 l0 -30 68 0 68 0 17 -177 c10 -98 20 -180 23 -182 13 -14 24 27
38 149 9 74 19 152 22 172 l6 37 71 3 c70 3 72 4 75 31 3 23 8 27 37 27 34 0
34 0 60 -84 14 -46 35 -95 45 -109 31 -39 92 -62 265 -102 88 -20 231 -54 317
-76 171 -42 238 -49 259 -23 7 9 23 20 36 25 30 11 111 124 124 173 12 44 5
108 -15 148 -13 24 -117 158 -501 643 -256 324 -298 377 -414 524 l-121 155 0
119 c0 65 4 117 9 115 5 -1 118 -127 253 -278 134 -151 391 -440 570 -642 179
-202 328 -378 332 -392 22 -90 22 -90 87 34 91 174 159 334 169 396 17 104 25
84 -264 679 -70 143 -139 284 -154 312 l-27 53 -571 0 -571 0 -179 -136 c-98
-75 -187 -142 -197 -149 -17 -12 -12 -30 73 -296 50 -156 93 -290 95 -297 3
-8 0 -10 -8 -5 -15 9 -477 332 -493 344 -7 5 -104 -59 -260 -170 -137 -98
-250 -178 -252 -176 -2 1 12 54 31 116 45 150 134 440 142 460 4 11 -50 56
-193 162 l-200 147 -561 0 -562 0 -49 -102z"/>
</g>
</svg>
